<svg data-v-0dd9719b="" version="1.0" xmlns="http://www.w3.org/2000/svg" xmlns:xlink="http://www.w3.org/1999/xlink" width="100%" height="100%" viewBox="0 0 340.000000 250.000000" preserveAspectRatio="xMidYMid meet" color-interpolation-filters="sRGB" style="margin: auto;"> <rect data-v-0dd9719b="" x="0" y="0" width="100%" height="100%" fill="#fff" fill-opacity="1" class="background"></rect> <rect data-v-0dd9719b="" x="0" y="0" width="100%" height="100%" fill="url(#watermark)" fill-opacity="1" class="watermarklayer"></rect> <g data-v-0dd9719b="" fill="#333" class="icon-text-wrapper icon-svg-group iconsvg" transform="translate(49.20538330078125,94.97748374938965)"><g class="iconsvg-imagesvg" transform="translate(0,0)"><g><rect fill="#333" fill-opacity="0" stroke-width="2" x="0" y="0" width="60" height="60.0450337753315" class="image-rect"></rect> <svg x="0" y="0" width="60" height="60.0450337753315" filtersec="colorsb524454065" class="image-svg-svg primary" style="overflow: visible;"><svg xmlns="http://www.w3.org/2000/svg" viewBox="-0.00005833804243593477 -0.003611281979829073 107.92018127441406 108.00090789794922"><title>资源 22</title><path d="M33.28 91.66c-9.86 0-16.24-5.64-17-12.6-1-9.63 6-15.21 12.12-16.56 17.11-3.76 28.26-14.18 33.4-31 .49-1.62.76-3.3 1.26-4.91A14.54 14.54 0 0 1 77 16.11a14.84 14.84 0 0 1 14.14 10.12c2.86 8.29-2.71 17.25-11.47 19.15C62 49.2 50.81 60 45.9 77.36a34.57 34.57 0 0 1-1.9 6.13c-2.65 5.35-7.09 8.1-10.72 8.17z" fill="#5bebaf"></path><path d="M31 15.82a68 68 0 0 0 8.33-.07c3.42-.42 5.61-2.95 6.16-6.38.15-.9.19-1.82.35-2.71A7.75 7.75 0 0 1 53.36 0a8 8 0 0 1 3.72 15.2 6.71 6.71 0 0 1-2.62.66c-7.78.11-9.79 6.41-8.85 12a14.69 14.69 0 0 1-5.56 14.73 14.94 14.94 0 0 1-16.69 1.21A15.1 15.1 0 0 1 16 29.14c.87-6.44 5-11.29 11-12.78 1.31-.33 2.66-.52 4-.78z" fill="#40d7ff"></path><path d="M77.17 62.2A14.88 14.88 0 1 1 75 91.8a18.29 18.29 0 0 0-6.56.18c-4.24 1-6.07 3.39-6.37 7.76-.26 3.74-1.84 6.53-5.46 7.78a7.29 7.29 0 0 1-8.07-2 7.28 7.28 0 0 1-1.77-8.25c1.16-2.94 3.26-4.88 6.4-4.94 6.38-.1 9.83-4.11 9.44-10.33-.1-1.69-.22-3.39-.21-5.08A14.63 14.63 0 0 1 77.17 62.2z" fill="#6691ff"></path><path d="M107.92 54.18a7.93 7.93 0 1 1-15.86.08 7.93 7.93 0 1 1 15.86-.08z" fill="#40d7ff"></path><path d="M15.64 53.81A7.74 7.74 0 0 1 8 61.72a8 8 0 0 1-8-7.92 7.83 7.83 0 0 1 7.77-7.86 7.67 7.67 0 0 1 7.87 7.87z" fill="#5479dc"></path></svg></svg> <!----></g></g> <g transform="translate(67,4.891986846923828)"><g data-gra="path-name" fill-rule="" class="tp-name iconsvg-namesvg" transform="translate(0,0)"><g transform="scale(1)"><g><path d="M21.27-29.79L21.27-29.79Q24.26-30.72 24.3-26.85L24.3-26.85Q24.04-25.66 23.91-24.48L23.91-24.48Q23.95-24.3 25.27-24.26L25.27-24.26 42.1-23.77Q42.98-23.77 43.2-22.85L43.2-22.85Q43.15-22.19 41.88-20.79L41.88-20.79Q39.81-18.59 37.75-19.69L37.75-19.69Q31.33-21.71 24.96-21.62L24.96-21.62Q23.86-21.62 23.86-20.57L23.86-20.57 23.86-18.72Q23.86-17.53 24.79-17.53L24.79-17.53Q29.71-17.62 34.76-17.4L34.76-17.4Q39.16-17.05 39.86-13.89L39.86-13.89Q39.24-8.83 40.43-5.32L40.43-5.32Q41.22-1.54 39.95 0.53L39.95 0.53Q39.51 1.23 38.54 1.27L38.54 1.27Q37.62 1.27 37.44 0.26L37.44 0.26Q36.61-2.07 36.83-5.41L36.83-5.41Q37.4-9.23 36.56-12.7L36.56-12.7Q36.04-13.84 34.76-14.33L34.76-14.33Q33.35-14.77 29.71-14.85L29.71-14.85Q28.61-14.85 28.83-14.41L28.83-14.41Q29.49-12.61 27.38-11.69L27.38-11.69Q27.11-11.43 26.85-11.29L26.85-11.29Q25.62-10.28 26.67-10.28L26.67-10.28Q28.08-10.33 29.49-10.2L29.49-10.2Q31.07-9.76 31.29-9.4L31.29-9.4Q31.82-7.69 30.1-7.38L30.1-7.38 25.36-7.51Q24.3-7.51 24.17-6.42L24.17-6.42Q24.13-5.32 25.44-5.32L25.44-5.32 32.83-5.32Q34.89-4.88 33.13-3.16L33.13-3.16Q31.99-2.02 30.37-2.29L30.37-2.29Q27.86-2.72 25.22-2.64L25.22-2.64Q24.17-2.64 24.17-1.32L24.17-1.32Q24.21 0.09 23.95 1.89L23.95 1.89Q23.86 3.21 22.76 3.47L22.76 3.47Q21.45 3.38 21.23 1.58L21.23 1.58Q20.92 0.31 21.01-1.45L21.01-1.45Q21.09-2.5 19.78-2.46L19.78-2.46Q17.4-2.2 14.5-1.54L14.5-1.54Q13.62-1.23 12.74-1.98L12.74-1.98Q11.91-3.3 13.36-4.61L13.36-4.61Q13.97-5.05 15.12-5.1L15.12-5.1Q17.58-5.36 20.04-5.27L20.04-5.27Q21.14-5.27 21.14-6.46L21.14-6.46Q21.05-7.47 19.56-7.43L19.56-7.43Q17.58-7.34 15.6-7.08L15.6-7.08Q13.45-6.86 13.1-8.39L13.1-8.39Q12.96-9.36 14.06-9.93L14.06-9.93Q15.51-10.42 17.01-10.33L17.01-10.33Q18.15-10.33 17.05-11.6L17.05-11.6Q14.46-13.8 17.14-14.77L17.14-14.77Q19.51-15.16 20.87-11.34L20.87-11.34Q21.23-10.28 22.02-10.28L22.02-10.28Q22.81-10.24 23.91-11.6L23.91-11.6 25.44-13.89Q26.02-14.81 24.57-14.9L24.57-14.9Q14.46-15.21 10.72-14.11L10.72-14.11Q9.62-13.62 9.4-12.61L9.4-12.61Q8.31-8.83 8.48-1.85L8.48-1.85Q8.75 0.66 6.94 1.23L6.94 1.23Q5.27 1.41 5.01-0.35L5.01-0.35Q4.83-6.24 6.81-14.9L6.81-14.9Q7.34-17.27 10.37-17.36L10.37-17.36Q14.9-17.58 19.56-17.49L19.56-17.49Q20.65-17.49 20.65-18.54L20.65-18.54Q20.79-19.51 20.74-20.48L20.74-20.48Q20.74-21.53 19.42-21.62L19.42-21.62Q13.97-21.8 6.94-20.39L6.94-20.39Q5.14-19.82 3.56-20.13L3.56-20.13Q2.94-20.26 2.55-20.92L2.55-20.92Q2.07-22.54 3.87-23.47L3.87-23.47Q6.06-24.61 8.83-24.35L8.83-24.35 19.47-24.35Q20.74-24.3 20.65-25.71L20.65-25.71Q20.48-27.42 20.65-28.92L20.65-28.92Q20.87-29.4 21.27-29.79ZM64.73-30.19L64.73-30.19Q65.26-31.33 67.19-31.2L67.19-31.2Q69.43-30.54 68.73-28.26L68.73-28.26Q68.51-27.42 68.42-26.59L68.42-26.59Q68.38-25.44 69.39-25.44L69.39-25.44Q77.21-25.18 85.96-23.86L85.96-23.86Q87.01-23.77 87.54-23.47L87.54-23.47Q88.02-23.03 87.63-22.41L87.63-22.41Q86.09-19.69 84.07-19.78L84.07-19.78Q83.41-19.82 81.87-20.57L81.87-20.57Q73.26-23.47 63.41-22.85L63.41-22.85Q56.73-22.63 51.11-20.26L51.11-20.26Q49.26-19.07 47.81-20.52L47.81-20.52Q47.37-21.31 47.68-22.1L47.68-22.1Q48.82-24.61 51.06-24.61L51.06-24.61Q53.57-24.48 58.05-25L58.05-25Q61.08-25.31 64.25-25.44L64.25-25.44Q65.35-25.44 65.3-26.76L65.3-26.76Q64.82-29.18 64.73-30.19ZM57.7-18.94L57.7-18.94Q59.11-19.56 62.97-19.6L62.97-19.6Q70.05-19.91 74.84-18.63L74.84-18.63Q76.95-17.53 75.54-15.38L75.54-15.38Q74.75-12.57 72.95-10.11L72.95-10.11Q71.85-8.92 69.21-9.8L69.21-9.8Q68.12-9.89 67.94-8.53L67.94-8.53Q67.68-6.86 67.98-5.36L67.98-5.36Q68.33-2.33 68.2 1.27L68.2 1.27 67.9 3.03Q67.46 4.17 66.36 4.09L66.36 4.09Q65.61 4.13 64.91 2.77L64.91 2.77Q64.56 1.32 64.73-2.59L64.73-2.59Q64.95-4.75 64.82-8.79L64.82-8.79Q64.73-9.93 63.46-9.84L63.46-9.84Q62.84-9.8 62.18-9.62L62.18-9.62Q61.22-9.14 60.42-9.18L60.42-9.18Q59.37-9.58 59.02-10.63L59.02-10.63 57.39-15.91Q56.47-18.06 57.7-18.94ZM70.4-16.79L70.4-16.79Q66.05-16.92 62.05-16.52L62.05-16.52Q61-16.35 60.86-16.17L60.86-16.17Q60.69-15.64 61.04-14.19L61.04-14.19Q61.17-12.3 62.71-12.7L62.71-12.7Q65.74-13.05 70.93-12.88L70.93-12.88Q72.03-13.71 72.11-16.3L72.11-16.3Q71.89-16.52 70.4-16.79ZM56.34-6.64L56.34-6.64Q58.54-7.73 59.55-5.45L59.55-5.45Q59.9-4.35 58.71-3.21L58.71-3.21Q56.34-1.27 52.6 0.83L52.6 0.83Q51.28 1.45 50.98 1.32L50.98 1.32Q50.27 0.62 51.33-0.62L51.33-0.62Q52.56-2.37 54.1-4.13L54.1-4.13Q55.2-5.67 56.34-6.64ZM72.47-5.84L72.47-5.84Q72.51-6.64 73.13-6.72L73.13-6.72Q74-6.72 75.45-5.63L75.45-5.63Q78.97-3.25 82.49-1.23L82.49-1.23Q84.33-0.35 82.49 1.05L82.49 1.05Q80.51 2.11 79.41 1.98L79.41 1.98Q77.92 1.67 76.42-0.35L76.42-0.35Q73.3-3.74 72.47-5.84ZM112.37-30.01L112.37-30.01Q113.16-30.41 113.77-29.88L113.77-29.88Q114.96-28.7 114.74-26.76L114.74-26.76Q114.57-25.62 114.57-24.48L114.57-24.48Q114.57-23.42 115.62-23.42L115.62-23.42 125.55-23.38Q126.69-23.42 127.31-23.12L127.31-23.12Q127.88-22.9 127.79-22.32L127.79-22.32Q127-20.35 125.02-19.91L125.02-19.91Q123.88-19.86 121.2-20.3L121.2-20.3Q118.43-20.61 115.53-20.57L115.53-20.57Q114.43-20.57 114.43-19.91L114.43-19.91Q114.43-19.25 115.75-18.15L115.75-18.15Q126.08-9.27 133.77-6.02L133.77-6.02Q135.4-4.97 133.51-3.69L133.51-3.69Q131-2.11 129.55-2.42L129.55-2.42Q128.58-2.55 127.44-4.04L127.44-4.04Q121.9-10.11 115.49-14.94L115.49-14.94Q114.39-15.73 114.39-14.63L114.39-14.63 114.43-7.38Q114.43-6.28 115.75-6.33L115.75-6.33Q120.81-6.55 122.56-6.37L122.56-6.37Q125.33-5.8 123.22-3.6L123.22-3.6Q121.68-2.37 119.62-3.03L119.62-3.03Q117.86-3.47 115.58-3.52L115.58-3.52Q114.52-3.52 114.52-2.46L114.52-2.46 114.61-1.01Q114.74 0.66 114.39 1.63L114.39 1.63Q113.6 4.09 111.75 2.5L111.75 2.5Q111.05 0.88 111.23-2.15L111.23-2.15Q111.23-3.47 110.17-3.47L110.17-3.47Q107.23-3.43 104.28-2.99L104.28-2.99Q102.57-2.2 101.91-3.47L101.91-3.47Q101.47-4.88 103.18-6.06L103.18-6.06Q104.28-6.68 107.53-6.24L107.53-6.24 110.21-6.24Q111.31-6.24 111.36-7.56L111.36-7.56Q111.31-10.72 111.4-13.93L111.4-13.93Q111.4-15.03 110.17-13.58L110.17-13.58Q103.4-6.15 96.11-3.65L96.11-3.65Q94.53-3.12 93.47-3.78L93.47-3.78Q91.8-5.45 94.39-6.9L94.39-6.9Q103.1-10.5 108.46-15.82L108.46-15.82Q110.65-18.06 111.31-20.3L111.31-20.3Q111.31-20.48 110.17-20.48L110.17-20.48Q106-20.39 103.05-19.73L103.05-19.73Q100.68-19.03 99.54-19.2L99.54-19.2Q98.53-19.47 98.39-20.61L98.39-20.61Q98.35-22.54 100.81-23.42L100.81-23.42Q101.91-23.91 105.12-23.47L105.12-23.47 110.04-23.47Q111.31-23.42 111.31-24.52L111.31-24.52Q111.23-26.46 111.27-28.43L111.27-28.43Q111.45-29.49 112.37-30.01ZM162.07-30.28L162.07-30.28Q163.13-30.67 163.83-29.97L163.83-29.97Q164.05-29.53 164.05-28.21L164.05-28.21 164-24.65Q163.92-23.73 165.37-22.81L165.37-22.81Q168.71-20.74 172.09-20.04L172.09-20.04Q173.85-19.64 172.09-17.84L172.09-17.84Q169.54-15.56 167.7-17.97L167.7-17.97Q165.59-20 164-20.92L164-20.92Q162.95-21.31 161.85-20L161.85-20Q160.27-18.28 158.38-17.4L158.38-17.4Q157.37-16.96 158.38-16.96L158.38-16.96Q163.65-17.05 166.99-16.79L166.99-16.79Q168.66-16.7 170.51-16.22L170.51-16.22Q173.01-15.29 173.1-13.45L173.1-13.45Q173.45-10.63 173.45-9.36L173.45-9.36Q173.06-7.16 171.47-7.43L171.47-7.43Q170.82-7.69 170.38-8.79L170.38-8.79Q170.02-10.55 169.8-12.3L169.8-12.3Q169.37-13.36 169.1-13.54L169.1-13.54Q168.44-13.89 166.95-14.02L166.95-14.02Q162.77-14.41 152.31-14.41L152.31-14.41Q148.36-14.33 145.63-13.67L145.63-13.67Q143.75-12.39 143.83-8.79L143.83-8.79Q143.39-6.24 141.06-7.38L141.06-7.38Q139.79-8.66 141.02-12.04L141.02-12.04Q141.24-12.92 141.59-13.8L141.59-13.8Q141.9-14.77 142.38-15.73L142.38-15.73Q144.32-17.01 148.05-16.88L148.05-16.88 152.84-16.96Q153.98-16.96 152.62-17.97L152.62-17.97Q151.66-19.07 150.03-20.48L150.03-20.48Q149.9-20.74 149.9-21.01L149.9-21.01Q149.85-21.27 148.89-20.04L148.89-20.04Q147.66-18.68 145.42-17.45L145.42-17.45Q143.7-16.44 142.69-16.83L142.69-16.83Q141.2-18.02 141.46-19.16L141.46-19.16Q141.64-19.47 142.95-19.86L142.95-19.86Q146.16-20.35 148.14-23.77L148.14-23.77Q148.45-25.09 148.27-28.3L148.27-28.3Q148.05-30.1 149.99-30.28L149.99-30.28Q151.3-29.84 151.08-28.17L151.08-28.17 151.08-25.93Q151.08-24.61 152.05-25.93L152.05-25.93Q152.53-26.81 152.84-27.69L152.84-27.69Q153.5-28.78 154.38-28.65L154.38-28.65Q155.43-28.17 155.65-27.16L155.65-27.16Q156.18-25.71 154.42-24.79L154.42-24.79 152.67-23.82Q152.05-23.16 151.13-23.73L151.13-23.73Q150.91-23.99 150.6-22.9L150.6-22.9Q150.21-21.84 150.64-22.1L150.64-22.1Q152.71-22.98 153.76-21.01L153.76-21.01 154.64-19.25Q155.39-17.93 154.2-17.09L154.2-17.09Q154.03-16.96 155.35-16.96L155.35-16.96Q156.8-16.96 156.31-17.23L156.31-17.23Q154.29-19.25 156.36-19.86L156.36-19.86Q158.2-20.08 159.87-21.84L159.87-21.84Q161.15-23.16 161.24-24.48L161.24-24.48Q161.37-26.85 161.28-29.27L161.28-29.27Q161.32-29.88 162.07-30.28ZM142.56-27.25L142.56-27.25Q143.83-29.22 145.81-27.33L145.81-27.33Q145.99-27.07 146.21-25.93L146.21-25.93 146.6-24.61Q147.17-23.2 146.21-22.81L146.21-22.81Q145.2-22.63 144.01-24.21L144.01-24.21Q141.86-25.58 142.56-27.25ZM166.51-26.46L166.51-26.46Q167.7-28.39 169.06-27.99L169.06-27.99Q170.2-27.03 169.94-25.53L169.94-25.53Q169.5-24.26 168.57-24.21L168.57-24.21Q167.7-24.13 166.82-23.73L166.82-23.73Q165.45-23.29 164.97-23.38L164.97-23.38Q163.92-23.77 164.84-24.83L164.84-24.83Q165.76-25.53 166.51-26.46ZM156.71-27.29L156.71-27.29Q157.46-28.08 158.95-27.42L158.95-27.42Q159.61-26.94 159.61-25.88L159.61-25.88Q160.18-24.61 159.7-23.47L159.7-23.47Q158.95-23.03 158.2-23.64L158.2-23.64Q157.59-24.43 156.84-24.7L156.84-24.7Q155.52-25.75 156.71-27.29ZM157.02-13.84L157.02-13.84Q158.51-14.06 158.95-12.13L158.95-12.13Q159.08-11.07 160.14-11.07L160.14-11.07Q163.48-11.12 166.82-11.03L166.82-11.03Q168.57-10.72 167.56-9.36L167.56-9.36Q166.03-7.69 164.71-8.13L164.71-8.13Q162.99-8.44 160.44-8.53L160.44-8.53Q159.3-8.57 160.49-7.69L160.49-7.69Q166.03-3.74 174.55-1.85L174.55-1.85Q176.35-1.67 176.97-1.14L176.97-1.14Q177.19-0.7 176.7-0.04L176.7-0.04Q175.83 0.62 174.95 1.1L174.95 1.1Q172.57 2.94 170.55 1.8L170.55 1.8Q166.11-0.88 159.96-5.1L159.96-5.1Q158.86-5.84 158.86-4.7L158.86-4.7 158.86 0.75Q158.82 1.93 158.29 2.77L158.29 2.77Q156.23 4 156.09 1.36L156.09 1.36Q155.87-0.53 155.87-4.35L155.87-4.35Q155.87-5.41 154.56-4.53L154.56-4.53Q149.15-0.88 144.45 1.19L144.45 1.19Q142.65 2.02 140.71 2.02L140.71 2.02Q138.38 1.19 138.74-0.66L138.74-0.66Q138.91-1.05 140.19-1.45L140.19-1.45Q146.43-3.21 150.21-5.14L150.21-5.14Q152.62-6.33 154.16-7.51L154.16-7.51Q155.13-8.48 153.81-8.44L153.81-8.44Q151.44-8.31 148.89-7.65L148.89-7.65Q147.44-7.43 146.91-7.87L146.91-7.87Q146.51-8.17 146.47-8.96L146.47-8.96Q146.82-10.85 148.8-11.16L148.8-11.16Q151.66-11.25 154.51-11.16L154.51-11.16Q155.92-11.12 156.05-12.35L156.05-12.35Q156.18-13.18 157.02-13.84Z" transform="translate(-2.4489474296569824, 31.213308334350586)"></path></g> <!----> <!----> <!----> <!----> <!----> <!----> <!----></g></g> <g data-gra="path-slogan" fill-rule="" class="tp-slogan iconsvg-slogansvg" fill="#333" transform="translate(30.03461456298828,41.30855941772461)"><!----> <!----> <g transform="scale(1, 1)"><g transform="scale(1)"><path d="M2.30-8.58L6.61-1.64L6.61-8.58L7.73-8.58L7.73 0L6.42 0L2.06-6.94L2.02-6.94L2.02 0L0.89 0L0.89-8.58L2.30-8.58ZM15.19 0L14.34-2.48L10.88-2.48L9.98 0L8.81 0L12.05-8.58L13.36-8.58L16.45 0L15.19 0ZM12.61-7.31L11.25-3.52L13.92-3.52L12.66-7.31L12.61-7.31ZM18.89-8.58L23.20-1.64L23.20-8.58L24.33-8.58L24.33 0L23.02 0L18.66-6.94L18.61-6.94L18.61 0L17.48 0L17.48-8.58L18.89-8.58ZM25.41-1.92L25.41-2.77L26.48-2.77L26.48-2.16Q26.48-0.75 27.80-0.75L27.80-0.75Q29.16-0.75 29.16-2.25L29.16-2.25L29.16-8.58L30.33-8.58L30.33-2.30Q30.28 0.09 27.84 0.14L27.84 0.14Q25.55 0.09 25.41-1.92L25.41-1.92ZM32.30-8.58L33.47-8.58L33.47 0L32.30 0L32.30-8.58ZM36.84-8.58L41.16-1.64L41.16-8.58L42.28-8.58L42.28 0L40.97 0L36.61-6.94L36.56-6.94L36.56 0L35.44 0L35.44-8.58L36.84-8.58ZM50.48-3.61L47.86-3.61L47.86-4.59L51.61-4.59L51.61 0L50.86 0L50.58-1.08Q49.59 0.09 47.77 0.14L47.77 0.14Q46.03 0.14 45.09-0.75L45.09-0.75Q43.69-2.06 43.73-4.36L43.73-4.36Q44.06-8.63 47.81-8.81L47.81-8.81Q51-8.63 51.47-6L51.47-6L50.34-6Q49.88-7.78 47.77-7.83L47.77-7.83Q45.09-7.64 44.95-4.31L44.95-4.31Q44.95-0.75 47.81-0.75L47.81-0.75Q48.84-0.75 49.59-1.31L49.59-1.31Q50.53-2.06 50.48-3.61L50.48-3.61ZM59.95-7.64L57.89-7.64L57.89-4.97L59.95-4.97Q61.78-4.92 61.73-6.38L61.73-6.38Q61.73-7.64 59.95-7.64L59.95-7.64ZM60.42 0L56.72 0L56.72-8.58L60.52-8.58Q62.81-8.48 62.91-6.42L62.91-6.42Q62.91-5.16 61.78-4.64L61.78-4.64Q63.38-4.08 63.38-2.53L63.38-2.53Q63.23-0.09 60.42 0L60.42 0ZM60.14-3.98L57.89-3.98L57.89-0.98L60.38-0.98Q62.16-1.03 62.20-2.53L62.20-2.53Q62.20-3.98 60.14-3.98L60.14-3.98ZM66-1.03L71.16-1.03L71.16 0L64.83 0L64.83-8.58L71.06-8.58L71.06-7.59L66-7.59L66-4.92L70.69-4.92L70.69-3.89L66-3.89L66-1.03ZM74.06-8.58L78.38-1.64L78.38-8.58L79.50-8.58L79.50 0L78.19 0L73.83-6.94L73.78-6.94L73.78 0L72.66 0L72.66-8.58L74.06-8.58ZM85.41-3.70L82.59-3.70L82.59 0L81.42 0L81.42-8.58L85.41-8.58Q88.27-8.58 88.27-6.28L88.27-6.28Q88.27-4.88 87.05-4.22L87.05-4.22Q88.08-3.94 88.08-2.58L88.08-2.58L88.17-1.03Q88.13-0.38 88.59-0.19L88.59-0.19L88.59 0L87.14 0Q87-0.61 86.95-2.16L86.95-2.16Q87-3.70 85.41-3.70L85.41-3.70ZM85.50-7.64L82.59-7.64L82.59-4.69L85.31-4.69Q87.05-4.69 87.05-6.19L87.05-6.19Q87.05-7.64 85.50-7.64L85.50-7.64ZM96.70-4.27L96.70-4.27Q96.52-7.64 93.70-7.83L93.70-7.83Q90.84-7.69 90.70-4.27L90.70-4.27Q90.84-0.94 93.70-0.80L93.70-0.80Q96.52-0.98 96.70-4.27ZM97.88-4.27L97.88-4.27Q97.59 0 93.70 0.14L93.70 0.14Q89.77 0 89.48-4.27L89.48-4.27Q89.72-8.72 93.70-8.81L93.70-8.81Q97.59-8.67 97.88-4.27ZM100.64-8.58L104.95-1.64L104.95-8.58L106.08-8.58L106.08 0L104.77 0L100.41-6.94L100.36-6.94L100.36 0L99.23 0L99.23-8.58L100.64-8.58ZM114.28-3.61L111.66-3.61L111.66-4.59L115.41-4.59L115.41 0L114.66 0L114.38-1.08Q113.39 0.09 111.56 0.14L111.56 0.14Q109.83 0.14 108.89-0.75L108.89-0.75Q107.48-2.06 107.53-4.36L107.53-4.36Q107.86-8.63 111.61-8.81L111.61-8.81Q114.80-8.63 115.27-6L115.27-6L114.14-6Q113.67-7.78 111.56-7.83L111.56-7.83Q108.89-7.64 108.75-4.31L108.75-4.31Q108.75-0.75 111.61-0.75L111.61-0.75Q112.64-0.75 113.39-1.31L113.39-1.31Q114.33-2.06 114.28-3.61L114.28-3.61Z" transform="translate(-0.890625, 8.8125)"></path></g></g></g></g></g><defs v-gra="od"></defs></svg>